<?xml version="1.0" encoding="UTF-8"?>
<svg width="257px" height="265px" viewBox="0 0 257 265" version="1.1" xmlns="http://www.w3.org/2000/svg" xmlns:xlink="http://www.w3.org/1999/xlink">
    <!-- Generator: Sketch 52.3 (67297) - http://www.bohemiancoding.com/sketch -->
    <title>画板</title>
    <desc>Created with Sketch.</desc>
    <defs>
        <path d="M60.733,0.001 C28.579,0.056 2.191,26.279 1.999,58.487 L1.172,197.181 C0.979,229.542 27.298,256.176 59.658,256.369 L196.441,257.185 C228.801,257.378 255.436,231.059 255.63,198.699 L256.457,60.005 C256.649,27.645 230.331,1.01 197.97,0.817 L61.186,0.001 C61.111,0.001 61.035,0.001 60.96,0.001 L60.733,0.001 Z" id="path-1"></path>
        <path d="M60.733,0.001 C28.579,0.056 2.191,26.279 1.999,58.487 L1.172,197.181 C0.979,229.542 27.298,256.176 59.658,256.369 L196.441,257.185 C228.801,257.378 255.436,231.059 255.63,198.699 L256.457,60.005 C256.649,27.645 230.331,1.01 197.97,0.817 L61.186,0.001 C61.111,0.001 61.035,0.001 60.96,0.001 L60.733,0.001 Z" id="path-3"></path>
        <path d="M60.733,0.001 C28.579,0.056 2.191,26.279 1.999,58.487 L1.172,197.181 C0.979,229.542 27.298,256.176 59.658,256.369 L196.441,257.185 C228.801,257.378 255.436,231.059 255.63,198.699 L256.457,60.005 C256.649,27.645 230.331,1.01 197.97,0.817 L61.186,0.001 C61.111,0.001 61.035,0.001 60.96,0.001 L60.733,0.001 Z" id="path-5"></path>
    </defs>
    <g id="画板" stroke="none" stroke-width="1" fill="none" fill-rule="evenodd">
        <g id="分组">
            <path d="M208.5749,264.7813 L47.1429,263.8183 C21.5209,263.6663 0.6829,242.5783 0.8359,216.9573 L1.7989,55.5243 C1.9519,29.9033 23.0399,9.0653 48.6609,9.2183 L210.0939,10.1803 C235.7149,10.3333 256.5529,31.4213 256.3999,57.0433 L255.4369,218.4753 C255.2839,244.0963 234.1959,264.9343 208.5749,264.7813" id="Fill-1" fill="#E5204F"></path>
            <mask id="mask-2" fill="white">
                <use xlink:href="#path-1"></use>
            </mask>
            <g id="Clip-4"></g>
            <polygon id="Fill-3" fill="#F22F66" mask="url(#mask-2)" points="125.9675 66.8692 -172.6425 234.4512 424.7005 233.4672"></polygon>
            <mask id="mask-4" fill="white">
                <use xlink:href="#path-3"></use>
            </mask>
            <g id="Clip-6"></g>
            <polygon id="Fill-5" fill="#FF3E7A" mask="url(#mask-4)" points="128.3156 138.2847 -234.9994 342.1797 491.7806 340.9827"></polygon>
            <mask id="mask-6" fill="white">
                <use xlink:href="#path-5"></use>
            </mask>
            <g id="Clip-8"></g>
            <polygon id="Fill-7" fill="#FF558E" mask="url(#mask-6)" points="128.7795 212.7198 -126.1915 355.8108 383.8565 354.9708"></polygon>
            <g mask="url(#mask-6)">
                <g transform="translate(17.000000, 47.811000)">
                    <polygon id="Fill-9" fill="#000000" points="110.8098 13.586 25.4978 153.455 212.2698 153.455"></polygon>
                    <polygon id="Fill-11" fill="#000000" points="187.03 89.3238 148.417 153.2468 229.155 153.5738"></polygon>
                    <polygon id="Fill-13" fill="#000000" points="36.6545 96.8121 0.1725 153.4551 76.9765 153.4551"></polygon>
                    <path d="M121.4885,15.7784 C120.9955,15.7964 120.4905,15.6764 120.0355,15.4034 C118.7945,14.6564 118.3945,13.0464 119.1445,11.8074 L125.5025,1.3004 C126.2505,0.0644 127.8655,-0.3366 129.1075,0.4114 C130.3495,1.1584 130.7485,2.7684 129.9985,4.0074 L123.6415,14.5134 C123.1665,15.2984 122.3435,15.7464 121.4885,15.7784" id="Fill-15" fill="#000000"></path>
                    <path d="M126.8137,23.6642 C125.3377,23.6642 124.1007,22.5132 124.0137,21.0202 C123.9227,19.4732 125.1037,18.1442 126.6527,18.0542 L137.8107,17.4002 C139.3347,17.3102 140.6877,18.4922 140.7767,20.0392 C140.8677,21.5872 139.6867,22.9152 138.1377,23.0062 L126.9807,23.6602 C126.9247,23.6632 126.8687,23.6642 126.8137,23.6642" id="Fill-17" fill="#000000"></path>
                    <path d="M115.4782,113.2774 C115.4782,122.9694 107.6222,130.8254 97.9302,130.8254 C88.2382,130.8254 80.3812,122.9694 80.3812,113.2774 C80.3812,103.5854 88.2382,95.7284 97.9302,95.7284 C107.6222,95.7284 115.4782,103.5854 115.4782,113.2774" id="Fill-19" fill="#FFFFFF"></path>
                    <path d="M104.9494,113.2774 C104.9494,117.1544 101.8064,120.2974 97.9294,120.2974 C94.0534,120.2974 90.9104,117.1544 90.9104,113.2774 C90.9104,109.4004 94.0534,106.2574 97.9294,106.2574 C101.8064,106.2574 104.9494,109.4004 104.9494,113.2774" id="Fill-21" fill="#000000"></path>
                    <path d="M142.0368,113.2774 C142.0368,121.0304 135.7508,127.3164 127.9978,127.3164 C120.2448,127.3164 113.9588,121.0304 113.9588,113.2774 C113.9588,105.5244 120.2448,99.2384 127.9978,99.2384 C135.7508,99.2384 142.0368,105.5244 142.0368,113.2774" id="Fill-23" fill="#FFFFFF"></path>
                    <path d="M135.0173,113.2774 C135.0173,117.1544 131.8743,120.2974 127.9973,120.2974 C124.1213,120.2974 120.9783,117.1544 120.9783,113.2774 C120.9783,109.4004 124.1213,106.2574 127.9973,106.2574 C131.8743,106.2574 135.0173,109.4004 135.0173,113.2774" id="Fill-25" fill="#000000"></path>
                </g>
            </g>
        </g>
    </g>
</svg>